<svg xmlns="http://www.w3.org/2000/svg" viewBox="0 0 128 128" role="img" aria-label="Keen Mitigator alligator auditor with clipboard">
  <defs>
    <linearGradient id="body" x1="16" x2="106" y1="30" y2="98" gradientUnits="userSpaceOnUse">
      <stop offset="0" stop-color="#53c98b"/>
      <stop offset="1" stop-color="#167344"/>
    </linearGradient>
    <linearGradient id="belly" x1="33" x2="101" y1="68" y2="88" gradientUnits="userSpaceOnUse">
      <stop offset="0" stop-color="#d7f7b8"/>
      <stop offset="1" stop-color="#9fd56b"/>
    </linearGradient>
    <filter id="softShadow" x="-20%" y="-20%" width="140%" height="140%">
      <feDropShadow dx="0" dy="3" stdDeviation="2" flood-color="#064e3b" flood-opacity="0.22"/>
    </filter>
  </defs>
  <circle cx="64" cy="64" r="60" fill="#e8fff4"/>
  <path d="M24 82c-5 6-10 9-16 9 7 6 21 7 31-1" fill="url(#body)" stroke="#0f5132" stroke-width="3.5" stroke-linejoin="round"/>
  <path d="M22 65c4-20 22-33 49-32 22 1 38 11 42 27 2 9-4 17-13 17H73c-8 0-15 4-21 10-8 8-22 7-28-5-2-4-3-10-2-17z" fill="url(#body)" stroke="#0f5132" stroke-width="4" stroke-linejoin="round" filter="url(#softShadow)"/>
  <path d="M25 68h70c6 0 12-2 18-5 1 8-5 14-13 14H73c-8 0-15 4-21 10-6 6-16 7-23 0-4-4-5-11-4-19z" fill="url(#belly)" stroke="#0f5132" stroke-width="3" stroke-linejoin="round"/>
  <path d="M35 61h11l-5 7-6-7zm15 0h11l-5 7-6-7zm15 0h11l-5 7-6-7zm15 0h11l-5 7-6-7zm15 0h11l-5 7-6-7z" fill="#fff" stroke="#e2e8f0" stroke-width="0.8"/>
  <path d="M37 77h9l-4-5-5 5zm15 0h9l-4-5-5 5zm15 0h9l-4-5-5 5zm15 0h9l-4-5-5 5z" fill="#fff" stroke="#e2e8f0" stroke-width="0.8"/>
  <path d="M48 36c1-7 13-7 14 0" fill="#41b883" stroke="#0f5132" stroke-width="3" stroke-linecap="round"/>
  <path d="M77 36c1-7 13-7 14 0" fill="#41b883" stroke="#0f5132" stroke-width="3" stroke-linecap="round"/>
  <circle cx="55" cy="39" r="8" fill="#f8fafc" stroke="#0f5132" stroke-width="3"/>
  <circle cx="84" cy="39" r="8" fill="#f8fafc" stroke="#0f5132" stroke-width="3"/>
  <circle cx="57" cy="40" r="3" fill="#111827"/>
  <circle cx="82" cy="40" r="3" fill="#111827"/>
  <path d="M28 51c9-3 18-4 27-3m24-1c10 0 19 3 28 8" fill="none" stroke="#0f5132" stroke-width="3" stroke-linecap="round" opacity="0.7"/>
  <path d="M33 88c7 8 18 10 30 2" fill="none" stroke="#0f5132" stroke-width="4" stroke-linecap="round" opacity="0.65"/>
  <rect x="73" y="82" width="34" height="35" rx="5" fill="#f8fafc" stroke="#334155" stroke-width="4" filter="url(#softShadow)"/>
  <path d="M83 82c1-6 13-6 14 0" fill="#cbd5e1" stroke="#334155" stroke-width="3" stroke-linecap="round"/>
  <path d="M82 95h16M82 104h13" stroke="#64748b" stroke-width="3.5" stroke-linecap="round"/>
  <path d="M70 87c7 1 10 5 11 10" fill="none" stroke="#0f5132" stroke-width="5" stroke-linecap="round"/>
  <path d="M108 90c5 2 8 6 8 11 0 7-6 13-15 13" fill="none" stroke="#0f5132" stroke-width="4" stroke-linecap="round"/>
</svg>
